# xmcd
#
# Track frame offsets:
#	150
#	13098
#	32350
#	45109
#	66269
#	81485
#	94720
#	114688
#	129341
#	144801
#	159438
#	185794
#
# Disc length: 2663
#
# Revision: 1
# Processed by: cddbd v1.5.1PL0 Copyright (c) Steve Scherf et al.
# Submitted via: CDex 1.50beta10
# Normalized: r0:TDELIM( - ),TSWAP
#
DISCID=940a650c
DTITLE=Just Jazz - Lust for Life
DYEAR=1900
DGENRE=Jazz
TTITLE0=Charlie Parker - Bird Feathers
TTITLE1=Miles Davis - Darn That Dream
TTITLE2=Oscar Peterson - Lover Come Back to Me
TTITLE3=Lester Young - Tea for Two
TTITLE4=Billie Holiday - Don't Explain
TTITLE5=Gerry Mulligan - Turnstile
TTITLE6=Benny Carter and His Orchestra - Stardust
TTITLE7=Duke Ellington - Do Nothing 'Till You Hear From Me
TTITLE8=Frank Foster - Lust for Life
TTITLE9=Jimmy Rushing - You Can Depend on Me
TTITLE10=Charlie Christian - Up on Teddy's Hill
TTITLE11=Anita O' Day - Skylark
EXTD=
EXTT0=
EXTT1=
EXTT2=
EXTT3=
EXTT4=
EXTT5=
EXTT6=
EXTT7=
EXTT8=
EXTT9=
EXTT10=
EXTT11=
PLAYORDER=
